<svg width="30" height="30" viewBox="0 0 30 30" fill="none" xmlns="http://www.w3.org/2000/svg">
<path d="M28.75 12.5H18.125C17.75 12.5 17.5 12.25 17.5 11.875V1.25C17.5 0.5 17 0 16.25 0H13.75C13 0 12.5 0.5 12.5 1.25V11.875C12.5 12.25 12.25 12.5 11.875 12.5H1.25C0.5 12.5 0 13 0 13.75V16.25C0 17 0.5 17.5 1.25 17.5H11.875C12.25 17.5 12.5 17.75 12.5 18.125V28.75C12.5 29.5 13 30 13.75 30H16.25C17 30 17.5 29.5 17.5 28.75V18.125C17.5 17.75 17.75 17.5 18.125 17.5H28.75C29.5 17.5 30 17 30 16.25V13.75C30 13 29.5 12.5 28.75 12.5Z" fill="#520DA9"/>
</svg>
