<svg width="41" height="42" viewBox="0 0 41 42" fill="none" xmlns="http://www.w3.org/2000/svg">
<g id="calendar-with-a-clock-time-tools_icon-icons.com_56831 1" clip-path="url(#clip0_685_54)">
<g id="Group">
<path id="Vector" d="M10.6683 6.50177L11.5692 2.26336C11.6937 1.67763 12.2587 1.30244 12.8326 1.42443C13.4062 1.54636 13.7697 2.11888 13.6452 2.70461L12.7443 6.94302C12.6198 7.52861 12.0549 7.9038 11.4812 7.78187C10.9073 7.65995 10.5439 7.08736 10.6683 6.50177ZM28.0885 11.3119C28.662 11.4338 29.2272 11.0587 29.3517 10.4731L30.2526 6.23462C30.3771 5.64889 30.0133 5.07632 29.4398 4.95441C28.8661 4.83245 28.3008 5.20757 28.1763 5.7933L27.2754 10.0317C27.1509 10.6173 27.5147 11.19 28.0885 11.3119ZM35.4518 32.8108C34.4567 37.4925 29.9322 40.4975 25.3464 39.5228C20.761 38.5481 17.8496 33.9626 18.8447 29.2809C19.8396 24.5999 24.3644 21.5948 28.9499 22.5695C33.5357 23.5442 36.4468 28.1298 35.4518 32.8108ZM33.3762 32.3697C34.1212 28.8644 31.9339 25.4185 28.4996 24.6885C25.0655 23.9586 21.6657 26.2169 20.9207 29.7222C20.1755 33.2281 22.3629 36.6736 25.7969 37.4035C29.2312 38.1335 32.631 35.8756 33.3762 32.3697ZM13.2437 14.8012L9.09182 13.9187L8.19095 18.157L12.3429 19.0395L13.2437 14.8012ZM6.83962 24.5145L10.9915 25.397L11.8924 21.1585L7.74053 20.276L6.83962 24.5145ZM14.4186 19.4807L18.5706 20.3633L19.4715 16.125L15.3195 15.2425L14.4186 19.4807ZM13.0673 25.8383L17.2193 26.7208L18.1202 22.4823L13.9682 21.5998L13.0673 25.8383ZM4.35824 25.9815L7.4665 11.3583L30.3013 16.212L29.4004 20.4504L31.4764 20.8916L33.2333 12.6262C33.5069 11.3389 32.7229 10.082 31.4804 9.81791L30.6147 9.63389L30.3894 10.6937C30.1413 11.8607 29.0083 12.615 27.8633 12.3716C26.718 12.1282 25.9898 10.9783 26.2379 9.81125L26.4631 8.75145L14.0074 6.10391L13.7821 7.1637C13.5341 8.33076 12.4012 9.08502 11.2561 8.84161C10.1106 8.59814 9.38244 7.44831 9.63051 6.28125L9.85577 5.22145L8.99107 5.03765C7.7485 4.77354 6.5201 5.60272 6.24648 6.88998L2.28223 25.5403C2.00953 26.8233 2.79361 28.0845 4.03617 28.3486L16.3184 30.9593L16.7689 28.8397L4.48669 26.2291C4.39265 26.209 4.33453 26.093 4.35824 25.9815ZM24.798 21.6869L25.6989 17.4487L21.5473 16.5662L20.6465 20.8045L24.798 21.6869ZM30.2622 31.7078L27.1482 31.0459L27.8239 27.867C27.9483 27.2817 27.5849 26.7091 27.0111 26.5872C26.4373 26.4652 25.8727 26.8405 25.7482 27.4258L24.8473 31.6646C24.7228 32.2501 25.086 32.8228 25.6597 32.9448L29.8116 33.8273C30.3854 33.9492 30.9504 33.5738 31.0748 32.9883C31.1993 32.4026 30.8359 31.8297 30.2622 31.7078Z" fill="#F9DD4A"/>
</g>
</g>
<defs>
<clipPath id="clip0_685_54">
<rect width="33.9565" height="34.6639" fill="white" transform="translate(7.64258 0.321289) rotate(12)"/>
</clipPath>
</defs>
</svg>
