<svg width="41" height="42" viewBox="0 0 41 42" fill="none" xmlns="http://www.w3.org/2000/svg">
<g id="balloons_86318 1" clip-path="url(#clip0_685_68)">
<g id="Group">
<g id="Group_2">
<g id="Clip path group">
<mask id="mask0_685_68" style="mask-type:luminance" maskUnits="userSpaceOnUse" x="2" y="1" width="37" height="41">
<g id="SVGID_2_">
<path id="Vector" d="M38.1999 7.11981L10.1941 1.16699L2.98705 35.0734L30.9929 41.0263L38.1999 7.11981Z" fill="white"/>
</g>
</mask>
<g mask="url(#mask0_685_68)">
<path id="Vector_2" d="M22.6404 31.3945C22.6475 31.396 22.6475 31.396 22.654 31.3974C22.6729 31.3778 22.6976 31.368 22.7184 31.3489C22.6905 31.3665 22.6648 31.3835 22.6404 31.3945Z" fill="#F9DD4A"/>
</g>
</g>
<g id="Clip path group_2">
<mask id="mask1_685_68" style="mask-type:luminance" maskUnits="userSpaceOnUse" x="2" y="1" width="37" height="41">
<g id="SVGID_2__2">
<path id="Vector_3" d="M38.1999 7.11981L10.1941 1.16699L2.98705 35.0734L30.9929 41.0263L38.1999 7.11981Z" fill="white"/>
</g>
</mask>
<g mask="url(#mask1_685_68)">
<path id="Vector_4" d="M21.4179 36.6435C21.29 34.5302 19.2103 32.6655 17.8302 32.3721C14.3033 31.5519 14.6077 29.152 14.6523 28.8875L15.6096 29.091C15.6096 29.091 16.5446 29.274 16.3476 28.3588C16.3475 28.3567 16.3475 28.3567 16.3477 28.3556L15.7115 25.4091C16.9848 25.4481 18.2201 25.1163 19.2894 24.4898C19.3171 24.4794 19.3366 24.4651 19.366 24.4467C19.9888 23.9765 20.575 23.4811 21.1035 22.9819C21.113 22.9747 21.1146 22.9671 21.1166 22.9578C23.8709 20.3238 25.2385 17.3769 25.8429 15.7659L25.8518 15.7239C25.9189 15.5659 25.9561 15.4279 26.008 15.309C26.048 15.1635 26.0885 15.0506 26.1183 14.9452C26.1987 14.6868 26.2285 14.5469 26.2285 14.5469C26.2603 14.4419 26.2831 14.3347 26.3059 14.2273C27.3882 9.13545 24.2209 4.14848 19.2254 3.08666C14.2379 2.02653 9.31681 5.29426 8.23448 10.3863C8.21165 10.4936 8.18887 10.6008 8.17504 10.7097C8.16461 10.7587 8.15215 10.8173 8.15057 10.8596C8.09955 11.1848 8.06661 11.4958 8.04185 11.8098C8.03677 11.8337 8.04209 11.8524 8.03872 11.8683C7.7002 15.9994 8.82761 19.3045 9.60733 21.0366C9.6471 21.1235 9.68907 21.2097 9.72246 21.2862C9.83217 21.5249 9.93432 21.7169 10.0178 21.8827C10.1005 22.0462 10.1686 22.1632 10.2191 22.2428C10.2767 22.3334 10.3013 22.3734 10.3013 22.3734C10.3013 22.3734 10.3013 22.3734 10.3102 22.3753C11.0343 23.4923 12.0921 24.3899 13.3643 24.9104L11.8204 27.1093C11.1472 28.0684 12.1189 28.3487 12.1189 28.3487L13.1867 28.5756C12.9575 32.7539 15.833 33.4187 17.1342 33.7339C20.3641 34.8267 20.023 37.6712 19.933 38.0946C19.9607 38.4195 20.0516 38.7816 20.7161 38.8252C21.3805 38.8688 21.4284 38.0686 21.4284 38.0686C21.4284 38.0686 21.533 37.7967 21.4179 36.6435Z" fill="#F9DD4A"/>
</g>
</g>
</g>
<path id="Vector_5" d="M30.4614 9.48581C29.5484 9.29174 28.6439 9.30235 27.7774 9.46205C27.3613 9.58728 27.3808 10.1008 27.3808 10.1008L27.4122 10.2629C27.4122 10.2629 27.4141 10.2689 27.4138 10.2705L27.4175 10.2881C27.4194 10.2945 27.4288 10.3098 27.4322 10.3189C27.5071 10.6391 27.6405 11.2391 27.6828 11.6148C27.8512 13.6222 27.4228 17.5026 23.1864 22.4801L23.0976 22.583C23.095 22.5852 22.9147 22.8085 23.0443 23.1059C23.0612 23.1465 23.0803 23.1941 23.0958 23.2311C23.1285 23.2974 23.1601 23.3638 23.1861 23.4214C23.2692 23.6056 23.3476 23.7519 23.4107 23.8795C23.4755 24.0047 23.5277 24.0942 23.5659 24.1546C23.6098 24.2231 23.6284 24.2552 23.6284 24.2552C23.6284 24.2552 23.6284 24.2552 23.6345 24.2565C24.1891 25.1121 24.9996 25.7985 25.9743 26.1974L24.792 27.8798C24.378 28.4703 24.771 28.7209 24.9451 28.7997L27.8133 29.4093C28.0089 29.414 28.372 29.3556 28.2592 28.8386C28.2595 28.8371 28.2595 28.8371 28.2599 28.8355L27.7716 26.5796C28.7482 26.6096 29.6936 26.354 30.5117 25.877C30.5328 25.868 30.5493 25.8579 30.5698 25.8435C31.0481 25.4831 31.4966 25.103 31.9013 24.7214C31.9086 24.7146 31.9096 24.7096 31.9109 24.7037C34.0197 22.6867 35.068 20.4291 35.5295 19.1958L35.5364 19.1634C35.589 19.0431 35.618 18.937 35.6563 18.8464C35.6864 18.7351 35.7176 18.6485 35.741 18.5678C35.8021 18.3708 35.8251 18.2623 35.8251 18.2623C35.8484 18.1827 35.866 18.0999 35.8834 18.0182C36.7105 14.1171 34.2868 10.2989 30.4614 9.48581Z" fill="#F9DD4A"/>
</g>
</g>
<defs>
<clipPath id="clip0_685_68">
<rect width="33.9565" height="34.6639" fill="white" transform="translate(7.58984 0.613281) rotate(12)"/>
</clipPath>
</defs>
</svg>
