<svg width="38" height="30" viewBox="0 0 38 30" fill="none" xmlns="http://www.w3.org/2000/svg">
<g id="Group">
<g id="Layer_1_107_">
<g id="Group_2">
<path id="Vector" d="M37.5183 4.86249C37.1413 4.43018 36.5984 4.18145 36.026 4.18145H8.74691L8.36197 1.88368C8.20405 0.932204 7.38088 0.233398 6.41558 0.233398H1.97403C0.88239 0.233398 0 1.11579 0 2.20742C0 3.29906 0.88239 4.18145 1.97403 4.18145H4.74358L8.41527 26.2195C8.43106 26.3083 8.47647 26.3813 8.5041 26.4643C8.53569 26.5689 8.56135 26.6676 8.6107 26.7623C8.67387 26.8926 8.75875 27.0032 8.84758 27.1157C8.90878 27.1927 8.96405 27.2697 9.03512 27.3368C9.14961 27.4434 9.28187 27.5184 9.4161 27.5934C9.49112 27.6349 9.55626 27.6901 9.63719 27.7217C9.86618 27.8145 10.107 27.8698 10.3617 27.8698H32.0779C33.1696 27.8698 34.0519 26.9874 34.0519 25.8957C34.0519 24.8041 33.1696 23.9217 32.0779 23.9217H12.0356L11.7079 21.9477H34.0519C35.035 21.9477 35.868 21.2252 36.0062 20.254L37.9803 6.43579C38.0612 5.86727 37.8914 5.29283 37.5183 4.86249ZM33.7499 8.1295L33.1873 12.0776H26.1558V8.1295H33.7499ZM24.1818 8.1295V12.0776H18.2597V8.1295H24.1818ZM24.1818 14.0516V17.9996H18.2597V14.0516H24.1818ZM16.2857 8.1295V12.0776H10.3636C10.259 12.0776 10.1643 12.1072 10.0715 12.1368L9.40426 8.1295H16.2857ZM10.3913 14.0516H16.2857V17.9996H11.0486L10.3913 14.0516ZM26.1558 17.9996V14.0516H32.9031L32.3405 17.9996H26.1558Z" fill="#F9DD4A"/>
<path id="Vector_2" d="M13.3246 29.7658C14.9599 29.7658 16.2856 28.4401 16.2856 26.8048C16.2856 25.1695 14.9599 23.8438 13.3246 23.8438C11.6892 23.8438 10.3635 25.1695 10.3635 26.8048C10.3635 28.4401 11.6892 29.7658 13.3246 29.7658Z" fill="#F9DD4A"/>
<path id="Vector_3" d="M31.0909 29.7658C32.7263 29.7658 34.052 28.4401 34.052 26.8048C34.052 25.1695 32.7263 23.8438 31.0909 23.8438C29.4556 23.8438 28.1299 25.1695 28.1299 26.8048C28.1299 28.4401 29.4556 29.7658 31.0909 29.7658Z" fill="#F9DD4A"/>
</g>
</g>
</g>
</svg>
