<svg width="20" height="20" viewBox="0 0 20 20" fill="none" xmlns="http://www.w3.org/2000/svg">
<g id="Group">
<path id="Vector" d="M19.2687 6.03588L18.3847 6.92023L13.0807 1.61686L13.9646 0.732422C14.9411 -0.244141 16.5245 -0.244141 17.501 0.732422L19.2687 2.5006C20.2438 3.47662 20.2438 5.0594 19.2687 6.03588ZM6.8931 16.642C6.649 16.8861 6.649 17.2814 6.8931 17.5255C7.13732 17.771 7.53285 17.771 7.77695 17.5255L17.501 7.80405L16.6161 6.91961L6.8931 16.642ZM2.47311 12.2229C2.22889 12.4673 2.22889 12.8624 2.47311 13.1067C2.71721 13.3508 3.11274 13.3508 3.35696 13.1067L13.0807 3.38446L12.1971 2.5006L2.47311 12.2229ZM13.9635 4.26766L4.2406 13.9905C3.75237 14.4778 3.75361 15.2699 4.2406 15.7582C4.72904 16.2465 5.51994 16.2487 6.00945 15.7569L15.7323 6.03588L13.9635 4.26766ZM6.00694 18.4071C5.70798 18.1078 5.56388 17.7285 5.51026 17.3376C5.38318 17.3572 5.2552 17.3755 5.12445 17.3755C4.45663 17.3755 3.82941 17.1144 3.35696 16.642C2.88451 16.1683 2.62451 15.5419 2.62451 14.8742C2.62451 14.7524 2.64277 14.6338 2.65991 14.5155C2.25585 14.4604 1.88237 14.2834 1.58939 13.9905C1.56128 13.9626 1.55159 13.9247 1.52599 13.8941L0 20L6.08995 18.4755C6.06312 18.451 6.03274 18.4327 6.00694 18.4071Z" fill="#520DA9"/>
</g>
</svg>
