<svg width="38" height="30" viewBox="0 0 38 30" fill="none" xmlns="http://www.w3.org/2000/svg">
<path d="M32.2461 0.921875H5.62945C4.92876 0.921875 4.36374 1.49399 4.36374 2.20147C4.36374 2.90896 4.92876 3.47785 5.62945 3.47785H32.2461C34.0209 3.47785 35.4654 4.93956 35.4654 6.73164V6.85573H5.62945C4.92876 6.85573 4.36374 7.42463 4.36374 8.13211C4.36374 8.83799 4.92876 9.4101 5.62945 9.4101H35.4654V23.2488C35.4654 25.0393 34.0209 26.501 32.2461 26.501H5.75235C3.97749 26.501 2.53301 25.0393 2.53301 23.2488V6.60433C2.53301 5.89684 1.9664 5.32473 1.26731 5.32473C0.566616 5.32473 0 5.89684 0 6.60433V23.2488C0 26.4526 2.5809 29.0569 5.75235 29.0569H32.2461C35.4175 29.0569 38 26.4526 38 23.2488V6.73164C38 3.52781 35.4175 0.921875 32.2461 0.921875ZM31.5071 19.1779C32.2062 19.1779 32.7744 18.6058 32.7744 17.8999C32.7744 17.1908 32.2062 16.6219 31.5071 16.6219H18.9378C18.2371 16.6219 17.6704 17.1908 17.6704 17.8999C17.6704 18.6058 18.2371 19.1779 18.9378 19.1779H31.5071ZM7.51604 15.9177H11.4425V19.8806H7.51604V15.9177ZM12.7082 22.4398C13.4089 22.4398 13.9755 21.8677 13.9755 21.1586V14.6381C13.9755 13.9322 13.4089 13.3585 12.7082 13.3585H6.25034C5.54965 13.3585 4.98463 13.9322 4.98463 14.6381V21.1586C4.98463 21.8677 5.54965 22.4398 6.25034 22.4398H12.7082Z" fill="#520DA9"/>
</svg>
