<svg width="38" height="38" viewBox="0 0 38 38" fill="none" xmlns="http://www.w3.org/2000/svg">
<path d="M29.6354 29.0446C28.9026 29.0473 28.1765 28.9048 27.4991 28.6255C26.8217 28.3461 26.2064 27.9353 25.6889 27.417L19.9882 21.7172C19.7866 21.5245 19.5183 21.417 19.2393 21.417C18.9604 21.417 18.6921 21.5245 18.4905 21.7172L12.7706 27.4326C12.2533 27.9517 11.6382 28.3633 10.9608 28.6435C10.2834 28.9237 9.55719 29.067 8.82406 29.0651H7.70801L14.9316 36.2831C16.015 37.3634 17.4831 37.97 19.0136 37.97C20.5441 37.97 22.0122 37.3634 23.0956 36.2831L30.3336 29.0495L29.6354 29.0446Z" fill="#520DA9"/>
<path d="M8.82526 8.90191C9.5584 8.89996 10.2847 9.04322 10.9621 9.32343C11.6394 9.60363 12.2545 10.0152 12.7718 10.5344L18.4917 16.251C18.6905 16.4491 18.9598 16.5603 19.2405 16.5603C19.5213 16.5603 19.7906 16.4491 19.9894 16.251L25.6889 10.556C26.2057 10.0362 26.8207 9.62413 27.4981 9.34369C28.1756 9.06324 28.9021 8.92003 29.6354 8.92237H30.3216L23.0835 1.68993C22.5475 1.15417 21.9112 0.729168 21.2108 0.439206C20.5104 0.149243 19.7597 0 19.0016 0C18.2434 0 17.4927 0.149243 16.7923 0.439206C16.0919 0.729168 15.4556 1.15417 14.9196 1.68993L7.70801 8.90191H8.82526Z" fill="#520DA9"/>
<path d="M36.3088 14.9063L31.9348 10.5358C31.8362 10.5761 31.7308 10.5974 31.6242 10.5984H29.6353C28.6003 10.601 27.6082 11.0117 26.8747 11.7413L21.1752 17.4327C20.6619 17.9446 19.9663 18.2321 19.2411 18.2321C18.5159 18.2321 17.8203 17.9446 17.307 17.4327L11.5858 11.7196C10.8525 10.9896 9.86036 10.5785 8.82521 10.5755H6.38362C6.283 10.5733 6.18356 10.5533 6.08986 10.5166L1.68826 14.9063C0.607161 15.9889 0 17.4558 0 18.9851C0 20.5145 0.607161 21.9813 1.68826 23.0639L6.08023 27.4524C6.17373 27.415 6.27329 27.3951 6.37399 27.3935H8.82521C9.86033 27.3905 10.8524 26.9793 11.5858 26.2494L17.3058 20.534C18.3399 19.5018 20.1422 19.5018 21.1752 20.534L26.8747 26.2278C27.6082 26.9573 28.6003 27.368 29.6353 27.3706H31.6242C31.7308 27.3714 31.8363 27.3926 31.9348 27.4332L36.3088 23.0627C36.8449 22.5271 37.2703 21.8913 37.5605 21.1914C37.8506 20.4916 38 19.7415 38 18.9839C38 18.2264 37.8506 17.4763 37.5605 16.7764C37.2703 16.0766 36.8449 15.4407 36.3088 14.9051" fill="#520DA9"/>
</svg>
