<svg width="20" height="20" viewBox="0 0 20 20" fill="none" xmlns="http://www.w3.org/2000/svg">
<path d="M2.72727 17.6C2.72727 18.9248 3.94818 20 5.45455 20H14.5455C16.0509 20 17.2727 18.9248 17.2727 17.6L19.0909 4.8H0.909091L2.72727 17.6ZM12.7273 7.2H14.5455V17.6H12.7273V7.2ZM9.09091 7.2H10.9091V17.6H9.09091V7.2ZM5.45455 7.2H7.27273V17.6H5.45455V7.2ZM18.6364 1.6H12.7273C12.7273 1.6 12.32 0 11.8182 0H8.18182C7.67909 0 7.27273 1.6 7.27273 1.6H1.36364C0.61 1.6 0 2.1368 0 2.8C0 3.4632 0 4 0 4H20C20 4 20 3.4632 20 2.8C20 2.1368 19.3891 1.6 18.6364 1.6Z" fill="#520DA9"/>
</svg>
