<svg width="20" height="20" viewBox="0 0 20 20" fill="none" xmlns="http://www.w3.org/2000/svg">
<path d="M19.1667 8.33333H12.0833C11.8333 8.33333 11.6667 8.16667 11.6667 7.91667V0.833333C11.6667 0.333333 11.3333 0 10.8333 0H9.16667C8.66667 0 8.33333 0.333333 8.33333 0.833333V7.91667C8.33333 8.16667 8.16667 8.33333 7.91667 8.33333H0.833333C0.333333 8.33333 0 8.66667 0 9.16667V10.8333C0 11.3333 0.333333 11.6667 0.833333 11.6667H7.91667C8.16667 11.6667 8.33333 11.8333 8.33333 12.0833V19.1667C8.33333 19.6667 8.66667 20 9.16667 20H10.8333C11.3333 20 11.6667 19.6667 11.6667 19.1667V12.0833C11.6667 11.8333 11.8333 11.6667 12.0833 11.6667H19.1667C19.6667 11.6667 20 11.3333 20 10.8333V9.16667C20 8.66667 19.6667 8.33333 19.1667 8.33333Z" fill="#520DA9"/>
</svg>
