<svg width="35" height="19" viewBox="0 0 35 19" fill="none" xmlns="http://www.w3.org/2000/svg">
<path d="M0 0H0.391436V11H0V0ZM0.78287 0H1.17431V11H0.78287V0ZM3.13314 0H3.52458V11H3.13314V0ZM10.7524 0H11.1438V11H10.7524V0ZM13.2997 0H13.6911V11H13.2997V0ZM15.7696 0H16.161V11H15.7696V0ZM16.4062 0H16.7976V11H16.4062V0ZM17.0436 0H17.4351V11H17.0436V0ZM17.76 0H18.1515V11H17.76V0ZM18.4764 0H18.8678V11H18.4764V0ZM20.4676 0H20.8591V11H20.4676V0ZM25.4051 0H25.7965V11H25.4051V0ZM30.5552 0H30.9466V11H30.5552V0ZM31.9639 0H32.3553V11H31.9639V0ZM32.9819 0H33.3734V11H32.9819V0ZM33.6086 0H34V11H33.6086V0ZM5.71778 0H6.10921V11H5.71778V0ZM1.80093 0H2.50568V11H1.80093V0ZM6.45245 0H7.1572V11H6.45245V0ZM9.71856 0H10.4233V11H9.71856V0ZM11.3907 0H12.0954V11H11.3907V0ZM14.0185 0H14.7233V11H14.0185V0ZM21.5106 0H22.6068V11H21.5106V0ZM22.9426 0H23.8044V11H22.9426V0ZM24.4535 0H25.1582V11H24.4535V0ZM26.4514 0H27.6265V11H26.4514V0ZM28.7526 0H29.9277V11H28.7526V0ZM3.91601 0H5.32551V11H3.91601V0ZM7.56941 0H8.66559V11H7.56941V0Z" fill="black"/>
<path d="M1 18.9008V13.1045H3.22434C3.59602 13.0904 3.96675 13.1502 4.31415 13.2802C4.58047 13.3915 4.80497 13.5808 4.95678 13.8219C5.10719 14.0502 5.18791 14.3156 5.18948 14.5872C5.1895 14.8347 5.11802 15.0772 4.98328 15.2868C4.83157 15.5178 4.6155 15.7015 4.36053 15.8164C4.68781 15.8986 4.97864 16.0831 5.18865 16.342C5.38301 16.5945 5.48481 16.9037 5.47767 17.2197C5.4799 17.482 5.4198 17.7412 5.3021 17.9769C5.20254 18.1883 5.05294 18.3734 4.86568 18.517C4.67076 18.6536 4.4501 18.751 4.21643 18.8037C3.90312 18.874 3.58219 18.9066 3.26078 18.9008H1ZM1.78506 15.5403H3.067C3.31737 15.5499 3.56795 15.5273 3.81231 15.4731C3.99112 15.4287 4.14967 15.3273 4.26281 15.1848C4.36814 15.0366 4.42133 14.859 4.41435 14.6787C4.41801 14.4996 4.36885 14.3234 4.27275 14.1709C4.18102 14.0262 4.03854 13.9192 3.87193 13.8697C3.57641 13.8032 3.27307 13.776 2.97011 13.7887H1.78506V15.5403ZM1.78506 18.2174H3.26078C3.43929 18.222 3.61789 18.2128 3.79492 18.1899C3.95505 18.1645 4.10878 18.1095 4.2479 18.0279C4.375 17.9476 4.47813 17.8358 4.54686 17.704C4.62706 17.5542 4.6675 17.3872 4.66445 17.2181C4.66999 17.0165 4.61061 16.8182 4.49468 16.6513C4.38034 16.491 4.21448 16.3727 4.02348 16.3152C3.74107 16.2406 3.4488 16.2078 3.15644 16.2181H1.78506V18.2174ZM6.62379 16.078C6.57419 15.2521 6.85887 14.4402 7.41631 13.8179C7.67901 13.5481 7.99722 13.3359 8.34994 13.1952C8.70267 13.0545 9.08189 12.9885 9.4626 13.0016C9.98252 12.9946 10.4944 13.1274 10.9425 13.3855C11.378 13.6372 11.7275 14.0094 11.947 14.4552C12.1837 14.9406 12.3019 15.4731 12.2923 16.0108C12.302 16.5574 12.1773 17.0984 11.9288 17.5882C11.7034 18.034 11.3435 18.4015 10.8977 18.6409C10.4571 18.8785 9.96161 19.0017 9.45846 18.9988C8.93194 19.0073 8.41362 18.8707 7.96287 18.6045C7.52913 18.3473 7.18171 17.9719 6.96332 17.5242C6.73835 17.0739 6.62219 16.5791 6.62379 16.078ZM7.43287 16.0901C7.39915 16.6933 7.60709 17.2855 8.01256 17.7412C8.1954 17.9371 8.4191 18.0923 8.66854 18.1964C8.91797 18.3004 9.18734 18.351 9.45846 18.3445C9.73121 18.3513 10.0022 18.3003 10.253 18.1951C10.5037 18.0898 10.7281 17.9328 10.911 17.7348C11.32 17.2511 11.5247 16.633 11.4832 16.0067C11.4941 15.5827 11.4119 15.1613 11.2422 14.771C11.0927 14.4344 10.8435 14.1492 10.5267 13.9523C10.2102 13.7578 9.84301 13.6569 9.46922 13.6616C9.20434 13.6577 8.94128 13.7051 8.69524 13.8011C8.4492 13.8972 8.22505 14.0399 8.03574 14.2212C7.81176 14.4768 7.6429 14.774 7.5393 15.0951C7.4357 15.4161 7.3995 15.7543 7.43287 16.0893V16.0901ZM13.5784 18.9008V13.1045H14.3626V18.2166H17.2817V18.9008H13.5784ZM18.5388 18.9008V13.1045H22.8252V13.7887H19.3231V15.5638H22.6024V16.244H19.3231V18.2166H22.9627V18.9008H18.5388ZM25.8611 18.9008V13.7887H23.9076V13.1045H28.6063V13.7887H26.6453V18.9008H25.8611ZM29.3293 16.078C29.2802 15.2518 29.5654 14.44 30.1235 13.8179C30.3862 13.5481 30.7044 13.3359 31.0571 13.1952C31.4098 13.0545 31.7891 12.9885 32.1698 13.0016C32.6897 12.9946 33.2016 13.1274 33.6496 13.3855C34.0852 13.6372 34.4347 14.0094 34.6541 14.4552C34.8908 14.9406 35.009 15.4731 34.9995 16.0108C35.0091 16.5574 34.8845 17.0984 34.6359 17.5882C34.4098 18.0348 34.0487 18.4026 33.6016 18.6417C33.161 18.8793 32.6655 19.0025 32.1623 18.9996C31.6354 19.0081 31.1168 18.8711 30.6659 18.6045C30.2331 18.347 29.8865 17.9715 29.6688 17.5242C29.4439 17.0739 29.3277 16.5791 29.3293 16.078ZM30.1384 16.0901C30.1047 16.6933 30.3126 17.2855 30.7181 17.7412C30.9009 17.9371 31.1246 18.0923 31.374 18.1964C31.6235 18.3004 31.8929 18.351 32.164 18.3445C32.4375 18.3521 32.7094 18.3016 32.9611 18.1965C33.2127 18.0913 33.438 17.9341 33.6215 17.7356C34.0305 17.2519 34.2352 16.6338 34.1937 16.0075C34.2022 15.583 34.1175 15.1616 33.9453 14.7718C33.7957 14.4352 33.5465 14.15 33.2298 13.9531C32.9133 13.7586 32.546 13.6577 32.1722 13.6624C31.9074 13.6585 31.6443 13.7059 31.3983 13.802C31.1522 13.898 30.9281 14.0407 30.7388 14.222C30.5152 14.4776 30.3467 14.7748 30.2434 15.0957C30.1401 15.4165 30.1041 15.7545 30.1375 16.0893L30.1384 16.0901Z" fill="black"/>
</svg>
