<svg width="25" height="28" viewBox="0 0 25 28" fill="none" xmlns="http://www.w3.org/2000/svg">
<path d="M23.4802 23.4458L22.4259 7.92765C22.2754 6.57825 21.3717 5.56617 20.1669 5.56617H16.2512V4.0482C16.2512 1.85539 14.5946 0 12.6368 0C10.679 0 9.02231 1.85539 9.02231 4.0482V5.56627H4.80547C3.60065 5.56627 2.69701 6.57834 2.54642 7.92774L1.49219 23.4458C1.49219 24.6265 1.79337 25.8073 2.54642 26.6506C3.14879 27.494 4.20302 28 5.25725 28H19.8657C20.9199 28 21.9742 27.494 22.4259 26.6506C23.179 25.8073 23.6308 24.6265 23.4802 23.4458ZM10.5283 4.0482C10.5283 2.6988 11.432 1.68673 12.6368 1.68673C13.8416 1.68673 14.7452 2.6988 14.7452 4.0482V5.56627H10.5284L10.5283 4.0482ZM21.6729 25.4699C21.2211 25.9759 20.6187 26.3133 20.0163 26.3133H5.40775C4.80538 26.3133 4.20293 25.9759 3.75115 25.4699C3.29938 24.9638 3.14879 24.2891 3.14879 23.6145L4.20302 8.09641C4.20302 7.59042 4.5042 7.25299 4.95606 7.25299H9.02231V9.27715C9.02231 9.78313 9.32349 10.1206 9.77535 10.1206C10.2271 10.1206 10.5284 9.78323 10.5284 9.27715V7.25299H14.7452V9.27715C14.7452 9.78313 15.0464 10.1206 15.4983 10.1206C15.7995 10.1206 16.2513 9.78323 16.2513 9.27715V7.25299H20.4682C20.9199 7.25299 21.2212 7.59032 21.2212 8.09641L22.2754 23.6145C22.2753 24.2891 22.1247 24.9639 21.6729 25.4699Z" fill="#520DA9"/>
</svg>
