<svg width="15" height="15" viewBox="0 0 15 15" fill="none" xmlns="http://www.w3.org/2000/svg">
<g id="Group 6">
<g id="Group">
<path id="Vector" d="M7.66667 14.3333C11.3486 14.3333 14.3333 11.3486 14.3333 7.66667C14.3333 3.98477 11.3486 1 7.66667 1C3.98477 1 1 3.98477 1 7.66667C1 11.3486 3.98477 14.3333 7.66667 14.3333Z" stroke="#520DA9"/>
<g id="Vector_2">
<path d="M7.6665 11.667V7.66699V11.667Z" fill="#520DA9"/>
<path d="M7.6665 11.667V7.66699" stroke="#520DA9" stroke-linecap="round"/>
</g>
</g>
<path id="Vector_3" d="M7.66634 5.66667C8.40272 5.66667 8.99967 5.06971 8.99967 4.33333C8.99967 3.59695 8.40272 3 7.66634 3C6.92996 3 6.33301 3.59695 6.33301 4.33333C6.33301 5.06971 6.92996 5.66667 7.66634 5.66667Z" fill="#520DA9"/>
</g>
</svg>
