<svg width="41" height="47" viewBox="0 0 41 47" fill="none" xmlns="http://www.w3.org/2000/svg">
<g id="bonfire_stake_campfire_blaze_fire_log_icon_194227 1" clip-path="url(#clip0_685_47)">
<g id="layer1">
<path id="path11629" d="M22.8657 6.19365C22.7822 6.16053 22.6922 6.15322 22.6051 6.17246C22.5179 6.19169 22.4366 6.23677 22.3694 6.30313C22.3023 6.36948 22.2517 6.45471 22.2229 6.55013C22.194 6.64554 22.188 6.74776 22.2053 6.84626C22.2053 6.84626 22.2897 7.33829 22.1648 7.92724C22.0398 8.51619 21.7549 9.1459 20.852 9.53643C19.727 10.0228 18.2126 10.9994 16.8414 12.4384C15.4702 13.8775 14.2451 15.7863 13.7987 18.1244C13.0965 21.8026 14.8302 25.4432 17.8097 27.3141L17.8145 24.54C17.8136 24.538 17.8126 24.536 17.8116 24.5341C17.8136 24.2894 17.8373 24.0436 17.8846 23.7959C17.9971 23.2066 18.3154 22.6755 18.7013 22.1306C19.0872 21.5857 19.5555 21.0438 20.0099 20.5591C20.9187 19.5896 21.7823 18.836 21.7823 18.836C21.84 18.7863 21.9064 18.7512 21.977 18.7332C22.0475 18.7152 22.1206 18.7146 22.1911 18.7316C22.2617 18.748 22.3282 18.7816 22.386 18.83C22.4439 18.8784 22.4918 18.9405 22.5263 19.0121C22.5263 19.0121 23.04 20.0916 23.516 21.3888C23.754 22.0373 23.9839 22.7445 24.1373 23.417C24.2907 24.0895 24.3837 24.7179 24.2712 25.3072C24.2252 25.5478 24.1593 25.7803 24.0751 25.9992L24.0672 26.0199L23.1623 28.5447C26.5227 28.1444 29.3838 25.6168 30.079 21.9761C30.1295 21.7116 30.1695 21.4544 30.2017 21.1973C30.216 21.084 30.1999 20.9686 30.1554 20.8664C30.1109 20.7641 30.0402 20.6797 29.9524 20.6242C29.8646 20.5687 29.7639 20.5447 29.6634 20.5553C29.5629 20.5658 29.4673 20.6106 29.3891 20.6836C28.9558 21.0848 28.3166 21.2782 27.6511 21.1221C27.0899 20.989 26.6083 20.6442 26.3692 20.2348C26.13 19.8254 26.064 19.3749 26.3762 18.7165C27.6392 16.0537 27.9098 13.8038 27.2562 11.7929C26.6026 9.78193 25.0989 8.0805 22.9984 6.27305C22.958 6.23887 22.9132 6.21259 22.8657 6.19365ZM31.3598 15.0584C30.5541 14.8922 29.7561 15.4951 29.5813 16.4108C29.4036 17.3412 29.9316 18.2671 30.7502 18.4608C31.5688 18.6545 32.3894 18.0477 32.567 17.1174C32.7447 16.1871 32.2167 15.2611 31.3981 15.0675C31.3853 15.0644 31.3726 15.061 31.3598 15.0584ZM18.0221 14.5684C18.1385 14.5871 18.2451 14.6518 18.3231 14.7511C18.367 14.8067 18.4007 14.8716 18.4223 14.9423C18.4438 15.0129 18.4528 15.0878 18.4488 15.1627C18.4447 15.2375 18.4276 15.3108 18.3985 15.3784C18.3695 15.446 18.3289 15.5065 18.2793 15.5564C16.0793 17.7685 16.8387 21.4158 16.8387 21.4158C16.8542 21.4882 16.8569 21.5635 16.8467 21.6374C16.8364 21.7113 16.8135 21.7822 16.7792 21.8463C16.7449 21.9103 16.6998 21.9662 16.6466 22.0106C16.5934 22.0551 16.5331 22.0873 16.4691 22.1054C16.3403 22.1425 16.2043 22.1202 16.0908 22.0435C15.9772 21.9668 15.8955 21.8419 15.8635 21.6962C15.8635 21.6962 14.9251 17.4163 17.6174 14.7091C17.672 14.6537 17.7365 14.6125 17.8064 14.5882C17.8763 14.5639 17.9499 14.5571 18.0221 14.5684ZM21.9102 20.2029C21.6198 20.4654 21.3132 20.7189 20.6915 21.3822C20.2588 21.8438 19.82 22.3555 19.4805 22.8349C19.141 23.3143 18.9115 23.7787 18.8638 24.0283C18.8311 24.1999 18.817 24.3698 18.8156 24.5372L18.8074 27.8524C19.2971 28.0754 19.8117 28.2547 20.3486 28.3818C20.9244 28.518 21.4986 28.588 22.0644 28.5992L23.146 25.5834C23.1485 25.5766 23.1511 25.5699 23.1538 25.5632C23.2129 25.4096 23.2591 25.2472 23.2919 25.0756C23.3396 24.8259 23.3034 24.2986 23.1684 23.707C23.0334 23.1153 22.8156 22.4483 22.589 21.8307C22.2635 20.9435 22.0797 20.5744 21.9102 20.2029ZM11.183 19.8455C10.3773 19.6793 9.5793 20.2822 9.40445 21.198C9.22684 22.1283 9.75482 23.0542 10.5734 23.2479C11.392 23.4417 12.2126 22.8349 12.3902 21.9046C12.5678 20.9742 12.0399 20.0483 11.2213 19.8546C11.2085 19.8516 11.1958 19.8482 11.183 19.8455ZM28.8259 32.0419C28.7287 32.0137 28.6257 32.0033 28.5189 32.0112L11.4068 33.1444C11.6006 33.4741 11.7209 33.8648 11.7402 34.2877L11.8606 36.8404L14.2823 36.6796C14.3079 35.3796 15.2656 34.2412 16.4815 34.2498L20.8625 33.9676C21.103 33.9997 21.2873 34.2226 21.3002 34.4972C21.3139 34.8114 21.0998 35.0806 20.8227 35.0976L16.4678 35.3894C15.8174 35.3847 15.3249 35.9384 15.2857 36.6126L17.0046 36.4991C17.2802 36.4809 17.5149 36.7187 17.5298 37.0312C17.5462 37.3461 17.3331 37.618 17.0553 37.6369L11.9065 37.9771C11.9065 38.351 11.8293 38.7085 11.6846 39.0242L28.7552 37.8938C29.3282 37.8557 29.76 37.3137 29.7337 36.669L29.5843 33.0961C29.563 32.5766 29.2483 32.1597 28.8259 32.0419ZM9.94121 27.5748C9.91694 27.5679 9.89207 27.5632 9.86735 27.5585C9.44043 27.4773 8.99566 27.7083 8.78625 28.174C8.3064 29.2406 7.82801 30.3047 7.34817 31.3713C7.08895 31.9478 7.28518 32.6388 7.79463 32.9333L8.07482 33.094C8.42458 32.5447 8.98122 32.1698 9.61774 32.1276L12.0252 31.968L9.79461 30.6882C9.73601 30.6546 9.68391 30.6083 9.64128 30.5518C9.59865 30.4952 9.56633 30.4296 9.54618 30.3587C9.52602 30.2878 9.51842 30.2129 9.52381 30.1384C9.52919 30.0639 9.54746 29.9912 9.57757 29.9245C9.60762 29.8576 9.64896 29.798 9.69923 29.7491C9.7495 29.7002 9.80771 29.663 9.87051 29.6395C9.9333 29.616 9.99946 29.6069 10.0652 29.6125C10.1309 29.618 10.1949 29.6383 10.2535 29.6721L14.0185 31.8365L17.0334 31.6366L10.1568 27.6657C10.0855 27.6248 10.0142 27.5951 9.94121 27.5748ZM26.4587 33.6192C26.6799 33.671 26.8418 33.8849 26.8538 34.141C26.867 34.4547 26.6532 34.7231 26.3766 34.7403L23.4915 34.9301C23.2149 34.9478 22.9801 34.7074 22.9672 34.3937C22.9535 34.0795 23.1676 33.8103 23.4447 33.7932L26.3287 33.6089C26.3724 33.6053 26.416 33.6092 26.4587 33.6192ZM9.92271 33.2789C9.84634 33.2661 9.76569 33.2557 9.66658 33.2592C9.09351 33.2973 8.6657 33.8403 8.69187 34.4849L8.83753 38.0569C8.86372 38.6963 9.33542 39.1795 9.90384 39.1419L9.92933 39.1392C9.93358 39.1385 9.9373 39.1394 9.94175 39.1369C10.5109 39.1023 10.9358 38.566 10.9064 37.927L10.742 34.354C10.7171 33.81 10.3736 33.3796 9.92271 33.2789ZM27.2277 39.1302L24.8911 39.2851L24.0849 41.0471C23.8328 41.5998 24.008 42.2582 24.4804 42.5618L24.489 42.5691L24.5295 42.5926C25.0351 42.8844 25.6382 42.6589 25.8956 42.0866L27.2277 39.1302ZM23.7299 39.3624L19.4242 39.6476L22.9767 41.6947C22.9583 41.3043 23.0274 40.9028 23.1967 40.5313L23.7299 39.3624Z" fill="#F9DD4A"/>
</g>
</g>
<defs>
<clipPath id="clip0_685_47">
<rect width="34.1318" height="38.4299" fill="white" transform="matrix(0.973125 0.230279 -0.187538 0.982257 7.5144 0.860352)"/>
</clipPath>
</defs>
</svg>
