<svg width="27" height="38" viewBox="0 0 27 38" fill="none" xmlns="http://www.w3.org/2000/svg">
<g id="Group">
<g id="Group_2">
<path id="Vector" d="M13.0625 0C5.84814 0 0 5.84814 0 13.0625C0 20.2769 13.0625 38 13.0625 38C13.0625 38 26.125 20.2769 26.125 13.0625C26.125 5.84814 20.2769 0 13.0625 0ZM2.375 13.0625C2.375 7.16894 7.16894 2.375 13.0625 2.375C18.9561 2.375 23.75 7.16894 23.75 13.0625C23.75 17.1677 17.8101 27.0783 13.0625 33.9144C8.31487 27.0783 2.375 17.1677 2.375 13.0625ZM13.0625 7.125C9.78292 7.125 7.125 9.78292 7.125 13.0625C7.125 16.3421 9.78292 19 13.0625 19C16.3421 19 19 16.3421 19 13.0625C19 9.78292 16.3421 7.125 13.0625 7.125ZM13.0625 16.625C11.0981 16.625 9.5 15.0269 9.5 13.0625C9.5 11.0981 11.0981 9.5 13.0625 9.5C15.0269 9.5 16.625 11.0981 16.625 13.0625C16.625 15.0269 15.0269 16.625 13.0625 16.625Z" fill="#F9DD4A"/>
</g>
</g>
</svg>
