<svg width="40" height="41" viewBox="0 0 40 41" fill="none" xmlns="http://www.w3.org/2000/svg">
<g id="graph_office_chart_meeting_presentation_conference_icon_210501 1" clip-path="url(#clip0_685_61)">
<g id="layer1">
<path id="path832" d="M17.9063 3.12648C15.9895 2.71905 14.0862 3.98436 13.6699 5.94284C13.4485 6.98478 13.6909 8.01958 14.2551 8.82138C12.3795 8.8349 10.6895 10.1774 10.2754 12.1259L9.19503 17.2085L4.71594 16.2565C4.44241 16.1994 4.17327 16.3783 4.11294 16.6574L3.24883 20.7227C3.21208 20.8926 3.26118 21.0692 3.37925 21.1933L5.74342 23.6648L3.74939 33.0459L2.25442 32.7282C1.98088 32.671 1.71172 32.85 1.65142 33.1291C1.59066 33.4096 1.76362 33.6861 2.03818 33.7455L30.8836 39.8768C31.1596 39.9366 31.4327 39.7542 31.4916 39.4718C31.5503 39.1908 31.3749 38.9168 31.0999 38.8595L17.6743 36.0058L19.6763 26.5869L22.9879 24.797C23.122 24.7248 23.2181 24.5959 23.2505 24.4451L23.359 23.935L33.305 26.0491C34.4168 26.2854 35.4902 25.5558 35.7277 24.4385L38.8592 9.70569C39.0967 8.58843 38.4098 7.48464 37.3011 7.24897L17.9063 3.12648ZM17.6903 4.14281C19.0695 4.43598 19.9348 5.80157 19.6352 7.21081C19.3357 8.62004 17.989 9.51961 16.6097 9.22644C15.2305 8.93327 14.3612 7.56267 14.6608 6.15344C14.9603 4.74421 16.311 3.84964 17.6903 4.14281ZM20.1217 4.65962L37.0851 8.2653C37.6322 8.38159 37.9851 8.92224 37.8636 9.49406L34.732 24.2269C34.6122 24.7904 34.0807 25.1517 33.5211 25.0327L23.575 22.9186L24.007 20.886C24.0657 20.605 23.8903 20.331 23.6153 20.2737L18.1464 19.1112L18.6415 16.7818L18.7572 16.9589C18.8301 17.0746 18.9456 17.1554 19.078 17.1837L22.5575 17.9233C23.3754 18.0972 24.1936 17.5533 24.3712 16.7175C24.3878 16.6395 24.398 16.561 24.4027 16.4835L28.8627 15.5C29.1386 15.4398 29.3162 15.1636 29.2589 14.883C29.2311 14.7491 29.1521 14.6315 29.0397 14.5573C28.9263 14.4827 28.788 14.4582 28.6554 14.4881L24.1196 15.4846C23.9069 15.1814 23.5885 14.9557 23.2056 14.8743L21.4541 14.502L20.1144 11.7629C19.8602 11.243 19.6877 10.7675 19.3235 10.3396C19.1781 10.1687 19.0035 10.0186 18.7951 9.88805C19.7002 9.39663 20.3982 8.51746 20.6309 7.42244C20.8421 6.42916 20.6308 5.44332 20.1217 4.65962ZM31.395 10.2498C31.1835 10.2324 31.003 10.353 30.9187 10.5034C30.7735 10.7508 30.8517 11.0696 31.0934 11.2148L31.4234 11.4105L28.6977 12.1444L28.2582 10.4005C28.1905 10.1329 27.9284 9.96859 27.6625 10.027L22.7552 11.1084C22.4793 11.1686 22.3015 11.4458 22.3588 11.7265C22.4171 12.0061 22.6865 12.1827 22.9613 12.1211L27.3943 11.1453L27.8364 12.9105C27.9051 13.1886 28.1831 13.3543 28.4562 13.2808L31.6612 12.4174L31.4363 12.797C31.2911 13.0444 31.3693 13.3632 31.611 13.5084C31.8512 13.6545 32.1645 13.5742 32.3103 13.3282C32.6025 12.8305 32.8987 12.3263 33.1891 11.8304C33.2713 11.6653 33.2485 11.542 33.2327 11.4579C33.2009 11.3296 33.1218 11.2145 33.0013 11.1421L31.6142 10.3172C31.539 10.2766 31.4655 10.2556 31.395 10.2498ZM14.8987 9.925L17.3884 10.4542C18.0694 10.599 18.3402 10.7772 18.5522 11.0263C18.7642 11.2753 18.9274 11.6696 19.2018 12.2307L20.6523 15.1936C20.721 15.3347 20.8486 15.4357 21.0001 15.4678L22.9895 15.8906C23.2736 15.951 23.4382 16.2158 23.3765 16.5061C23.3148 16.7964 23.0576 16.9673 22.7735 16.907L19.4989 16.2109L18.4442 14.5479C18.2922 14.3071 17.9768 14.2401 17.74 14.3982C17.5025 14.5554 17.4338 14.8787 17.5868 15.1188L17.8623 15.5518L17.1507 18.8996L12.1762 17.8422L12.9321 14.2861C12.9929 14.0055 12.8197 13.73 12.5451 13.6706C12.2702 13.6132 11.9999 13.7945 11.9413 14.0755L11.1854 17.6316L10.1907 17.4202L11.271 12.3375C11.6319 10.6397 13.237 9.57179 14.8987 9.925ZM31.8768 15.6541C31.6008 15.5944 31.3278 15.7767 31.2689 16.0592L31.0528 17.0755L29.5627 16.7588C29.2882 16.6993 29.0155 16.8781 28.9549 17.1586L28.7388 18.1749L27.2487 17.8582C26.9737 17.8008 26.7035 17.9821 26.6449 18.263L26.2126 20.2967C26.1542 20.5762 26.3273 20.8491 26.6004 20.9082L28.5908 21.3312L30.5802 21.7541L32.5706 22.1772C32.8441 22.2343 33.1133 22.0554 33.1736 21.7763L34.2539 16.6937C34.3147 16.4132 34.1417 16.1366 33.8672 16.0772L31.8768 15.6541Z" fill="#F9DD4A"/>
</g>
</g>
<defs>
<clipPath id="clip0_685_61">
<rect width="32.5417" height="33.2491" fill="white" transform="translate(7.46094 0.90625) rotate(12)"/>
</clipPath>
</defs>
</svg>
