<svg width="38" height="38" viewBox="0 0 38 38" fill="none" xmlns="http://www.w3.org/2000/svg">
<g id="PIX ICONE">
<path id="Vector" d="M29.6354 29.0437C28.9026 29.0463 28.1765 28.9038 27.4991 28.6245C26.8217 28.3451 26.2064 27.9344 25.6889 27.416L19.9882 21.7162C19.7866 21.5235 19.5183 21.416 19.2393 21.416C18.9604 21.416 18.6921 21.5235 18.4905 21.7162L12.7706 27.4317C12.2533 27.9508 11.6382 28.3623 10.9608 28.6425C10.2834 28.9227 9.55719 29.066 8.82406 29.0641H7.70801L14.9316 36.2821C16.015 37.3624 17.4831 37.9691 19.0136 37.9691C20.5441 37.9691 22.0122 37.3624 23.0956 36.2821L30.3336 29.0485L29.6354 29.0437Z" fill="#520DA9"/>
<path id="Vector_2" d="M8.82526 8.90191C9.5584 8.89996 10.2847 9.04322 10.9621 9.32343C11.6394 9.60363 12.2545 10.0152 12.7718 10.5344L18.4917 16.251C18.6905 16.4491 18.9598 16.5603 19.2405 16.5603C19.5213 16.5603 19.7906 16.4491 19.9894 16.251L25.6889 10.556C26.2057 10.0362 26.8207 9.62413 27.4981 9.34369C28.1756 9.06324 28.9021 8.92003 29.6354 8.92237H30.3216L23.0835 1.68993C22.5475 1.15417 21.9112 0.729168 21.2108 0.439206C20.5104 0.149243 19.7597 0 19.0016 0C18.2434 0 17.4927 0.149243 16.7923 0.439206C16.0919 0.729168 15.4556 1.15417 14.9196 1.68993L7.70801 8.90191H8.82526Z" fill="#520DA9"/>
<path id="Vector_3" d="M36.3088 14.9054L31.9348 10.5349C31.8362 10.5752 31.7308 10.5964 31.6242 10.5974H29.6353C28.6003 10.6 27.6082 11.0107 26.8747 11.7403L21.1752 17.4317C20.6619 17.9436 19.9663 18.2312 19.2411 18.2312C18.5159 18.2312 17.8203 17.9436 17.307 17.4317L11.5858 11.7186C10.8525 10.9886 9.86036 10.5775 8.82521 10.5746H6.38362C6.283 10.5723 6.18356 10.5524 6.08986 10.5156L1.68826 14.9054C0.607161 15.9879 0 17.4548 0 18.9841C0 20.5135 0.607161 21.9804 1.68826 23.0629L6.08023 27.4515C6.17373 27.4141 6.27329 27.3941 6.37399 27.3925H8.82521C9.86033 27.3895 10.8524 26.9783 11.5858 26.2485L17.3058 20.533C18.3399 19.5008 20.1422 19.5008 21.1752 20.533L26.8747 26.2268C27.6082 26.9564 28.6003 27.3671 29.6353 27.3697H31.6242C31.7308 27.3704 31.8363 27.3916 31.9348 27.4322L36.3088 23.0617C36.8449 22.5262 37.2703 21.8903 37.5605 21.1904C37.8506 20.4906 38 19.7405 38 18.9829C38 18.2254 37.8506 17.4753 37.5605 16.7754C37.2703 16.0756 36.8449 15.4397 36.3088 14.9042" fill="#520DA9"/>
</g>
</svg>
