<svg width="239" height="240" viewBox="0 0 239 240" fill="none" xmlns="http://www.w3.org/2000/svg">
<path d="M0 106.667H26.5556V133.333H0V106.667ZM106.222 26.6667H132.778V80H106.222V26.6667ZM79.6667 106.667H132.778V160H106.222V133.333H79.6667V106.667ZM159.333 106.667H185.889V133.333H212.444V106.667H239V133.333H212.444V160H239V213.333H212.444V240H185.889V213.333H132.778V240H106.222V186.667H159.333V160H185.889V133.333H159.333V106.667ZM212.444 213.333V160H185.889V213.333H212.444ZM159.333 0H239V80H159.333V0ZM185.889 26.6667V53.3333H212.444V26.6667H185.889ZM0 0H79.6667V80H0V0ZM26.5556 26.6667V53.3333H53.1111V26.6667H26.5556ZM0 160H79.6667V240H0V160ZM26.5556 186.667V213.333H53.1111V186.667H26.5556Z" fill="#520DA9"/>
</svg>
