<svg width="43" height="42" viewBox="0 0 43 42" fill="none" xmlns="http://www.w3.org/2000/svg">
<g id="theatre_icon_158130 1" clip-path="url(#clip0_685_40)">
<path id="Vector" d="M24.721 6.3787C23.292 6.30826 19.6577 5.90596 16.8392 6.12587C13.9704 6.56994 11.1805 7.73562 9.76576 8.13805C8.74604 8.38998 9.14902 9.2763 9.31752 10.1345C10.3668 19.4033 13.9182 22.8565 16.5244 24.1183C17.0813 22.7103 17.9335 21.1599 19.0254 19.5138C18.7957 19.4647 18.6572 19.5453 18.4274 19.4962C16.5784 19.6883 14.4832 21.4796 14.4832 21.4796C14.4832 21.4796 15.5018 18.0487 18.2305 17.6921C18.8552 17.5907 19.5358 17.7435 20.085 17.9784L21.0738 16.7581C21.099 16.646 21.2035 16.6831 21.2287 16.571C21.6095 15.9476 22.5341 14.6108 24.2574 14.9791C24.4871 15.0282 24.819 15.0918 25.0236 15.253C25.203 15.5263 25.424 15.5808 25.6035 15.8541C25.9415 13.812 26.0392 11.3662 25.6595 8.23108C25.5807 7.50948 25.7801 6.48758 24.721 6.3787ZM21.9122 12.0186C23.2908 12.3132 24.0895 13.5484 24.0895 13.5484C24.0895 13.5484 22.8111 14.4498 21.4325 14.1552C20.0539 13.8606 19.2552 12.6254 19.2552 12.6254C19.2552 12.6254 20.6233 11.8606 21.9122 12.0186ZM16.0193 12.9616C16.5601 13.0332 16.9449 13.1961 16.9449 13.1961C16.9449 13.1961 16.3716 14.7107 15.1615 15.2743C13.9514 15.838 12.379 15.267 12.379 15.267C12.379 15.267 12.9523 13.7524 14.1624 13.1888C14.7675 12.907 15.4786 12.8901 16.0193 12.9616ZM23.872 16.6954C23.1783 16.523 22.935 17.3834 22.4008 17.886C13.4291 28.8894 17.8862 34.1733 18.7944 34.9547C19.7276 35.624 26.1734 38.6533 35.1199 27.7619C35.7053 27.2997 36.5611 26.6384 35.7678 25.8815C34.7952 24.8514 32.7048 22.2977 30.5691 20.5492C28.4333 18.8008 25.4573 17.5774 24.1794 16.8345C24.0596 16.7649 23.9711 16.72 23.872 16.6954ZM22.1806 22.7209C22.6927 22.7863 23.3517 22.9345 23.9206 23.3497C24.9436 24.1556 25.2113 25.6444 25.2113 25.6444C25.2113 25.6444 23.7269 25.9218 22.6142 24.9792C21.5912 24.1733 21.3234 22.6845 21.3234 22.6845C21.3234 22.6845 21.6686 22.6555 22.1806 22.7209ZM27.4751 26.7889C28.0015 26.8574 28.6677 27.0071 29.1792 27.41C30.3171 28.2405 30.4463 29.8098 30.4463 29.8098C30.4463 29.8098 28.8347 29.9499 27.8369 29.0319C26.699 28.2014 26.5461 26.7372 26.5461 26.7372C26.5461 26.7372 26.9487 26.7205 27.4751 26.7889ZM19.8683 26.4847C19.8683 26.4847 20.5696 29.2261 22.1167 30.3789C23.6638 31.5318 26.5571 31.5481 26.5571 31.5481C26.5571 31.5481 23.0344 33.7318 20.7586 32.0709C18.5977 30.4344 19.8683 26.4847 19.8683 26.4847Z" fill="#F9DD4A"/>
</g>
<defs>
<clipPath id="clip0_685_40">
<rect width="35.218" height="34.4378" fill="white" transform="matrix(0.977918 0.208989 -0.219061 0.975711 8.43494 0.374023)"/>
</clipPath>
</defs>
</svg>
